<?xml version="1.0" encoding="UTF-8"?>
<!-- Generator: Adobe Illustrator 19.1.0, SVG Export Plug-In . SVG Version: 6.00 Build 0)  -->
<svg xmlns="http://www.w3.org/2000/svg" xmlns:xlink="http://www.w3.org/1999/xlink" xmlns:dc="http://purl.org/dc/elements/1.1/" xmlns:cc="http://creativecommons.org/ns#" xmlns:rdf="http://www.w3.org/1999/02/22-rdf-syntax-ns#" version="1.1" id="DESIGNS" x="0px" y="0px" width="32px" height="32px" viewBox="0 0 32 32" style="enable-background:new 0 0 32 32;" xml:space="preserve">
<title property="dc:title">to madho</title><desc property="dc:description">An icon for "madho" from the Lines and Angles series on to [icon]. Downloaded from http://www.toicon.com/icons/lines-and-angles_madho by 45.32.23.10 on 2016-01-17. Licensed CC-BY, see http://toicon.com/license/ for details.</desc>
<path class="linesandangles_een" d="M27,11h-1.202C24.869,6.441,20.829,3,16,3s-8.869,3.441-9.798,8H5c-1.654,0-3,1.346-3,3v1  c0,1.654,1.346,3,3,3h1v1c0,5.514,4.486,10,10,10s10-4.486,10-10v-1h1c1.654,0,3-1.346,3-3v-1C30,12.346,28.654,11,27,11z M24,19  c0,0.937-0.17,1.832-0.467,2.668C21.406,19.943,18.783,19,16,19c-2.78,0-5.407,0.942-7.533,2.666C8.17,20.831,8,19.936,8,19v-5  c0-3.309,2.691-6,6-6h4c3.309,0,6,2.691,6,6V19z M20.539,6.42C19.74,6.152,18.888,6,18,6h-4c-0.888,0-1.74,0.152-2.539,0.42  C12.752,5.527,14.315,5,16,5S19.248,5.527,20.539,6.42z M5,16c-0.552,0-1-0.449-1-1v-1c0-0.551,0.448-1,1-1h1v3H5z M16,27  c-2.741,0-5.163-1.387-6.605-3.495C11.221,21.89,13.536,21,16,21c2.465,0,4.779,0.889,6.606,2.504C21.164,25.612,18.742,27,16,27z   M28,15c0,0.551-0.448,1-1,1h-1v-3h1c0.552,0,1,0.449,1,1V15z M13,23h6v2h-6V23z M12,15h2v2h-2V15z M18,15h2v2h-2V15z M11,11h4v2h-4  V11z M17,11h4v2h-4V11z" style="fill: #111918;"/>
<metadata><work rdf:about=""><format>image/svg+xml</format><type rdf:resource="http://purl.org/dc/dcmitype/StillImage"/><license rdf:resource="http://creativecommons.org/licenses/by/4.0/"/><attributionname>Shannon E Thomas</attributionname><attributionurl>http://www.toicon.com/icons/lines-and-angles_madho</attributionurl></work></metadata></svg>
